<mxfile host="app.diagrams.net" agent="Mozilla/5.0 (Macintosh; Intel Mac OS X 10_15_7) AppleWebKit/605.1.15 (KHTML, like Gecko) Version/17.6 Safari/605.1.15" version="25.0.0">
  <diagram name="Page-1" id="LTAM06_SnJjzPH0YoZ9g">
    <mxGraphModel dx="1172" dy="942" grid="1" gridSize="10" guides="1" tooltips="1" connect="1" arrows="1" fold="1" page="1" pageScale="1" pageWidth="827" pageHeight="1169" math="0" shadow="0">
      <root>
        <mxCell id="0" />
        <mxCell id="1" parent="0" />
        <mxCell id="bEHOcinHx2GO_Jd9N_kA-4" style="edgeStyle=orthogonalEdgeStyle;rounded=0;orthogonalLoop=1;jettySize=auto;html=1;" parent="1" source="bEHOcinHx2GO_Jd9N_kA-1" target="bEHOcinHx2GO_Jd9N_kA-2" edge="1">
          <mxGeometry relative="1" as="geometry" />
        </mxCell>
        <mxCell id="bEHOcinHx2GO_Jd9N_kA-5" value="use" style="edgeLabel;html=1;align=center;verticalAlign=middle;resizable=0;points=[];" parent="bEHOcinHx2GO_Jd9N_kA-4" vertex="1" connectable="0">
          <mxGeometry x="-0.1615" y="-1" relative="1" as="geometry">
            <mxPoint as="offset" />
          </mxGeometry>
        </mxCell>
        <mxCell id="bEHOcinHx2GO_Jd9N_kA-6" style="edgeStyle=orthogonalEdgeStyle;rounded=0;orthogonalLoop=1;jettySize=auto;html=1;" parent="1" source="bEHOcinHx2GO_Jd9N_kA-1" target="bEHOcinHx2GO_Jd9N_kA-3" edge="1">
          <mxGeometry relative="1" as="geometry">
            <mxPoint x="455" y="200" as="targetPoint" />
          </mxGeometry>
        </mxCell>
        <mxCell id="bEHOcinHx2GO_Jd9N_kA-7" value="write" style="edgeLabel;html=1;align=center;verticalAlign=middle;resizable=0;points=[];" parent="bEHOcinHx2GO_Jd9N_kA-6" vertex="1" connectable="0">
          <mxGeometry y="2" relative="1" as="geometry">
            <mxPoint as="offset" />
          </mxGeometry>
        </mxCell>
        <mxCell id="bEHOcinHx2GO_Jd9N_kA-1" value="Writer" style="shape=umlActor;verticalLabelPosition=bottom;verticalAlign=top;html=1;outlineConnect=0;" parent="1" vertex="1">
          <mxGeometry x="275" y="170" width="30" height="60" as="geometry" />
        </mxCell>
        <mxCell id="bEHOcinHx2GO_Jd9N_kA-2" value="Formal language" style="rounded=0;whiteSpace=wrap;html=1;" parent="1" vertex="1">
          <mxGeometry x="40" y="170" width="120" height="60" as="geometry" />
        </mxCell>
        <mxCell id="PPRwT2o1y2Lo-lwHDNqp-7" style="edgeStyle=orthogonalEdgeStyle;rounded=0;orthogonalLoop=1;jettySize=auto;html=1;" edge="1" parent="1" source="bEHOcinHx2GO_Jd9N_kA-3" target="PPRwT2o1y2Lo-lwHDNqp-6">
          <mxGeometry relative="1" as="geometry" />
        </mxCell>
        <mxCell id="PPRwT2o1y2Lo-lwHDNqp-8" value="contain&amp;nbsp;&lt;div&gt;Meaningful operators&lt;/div&gt;" style="edgeLabel;html=1;align=center;verticalAlign=middle;resizable=0;points=[];" vertex="1" connectable="0" parent="PPRwT2o1y2Lo-lwHDNqp-7">
          <mxGeometry x="-0.0429" y="-1" relative="1" as="geometry">
            <mxPoint x="13" y="19" as="offset" />
          </mxGeometry>
        </mxCell>
        <mxCell id="bEHOcinHx2GO_Jd9N_kA-3" value="Sentences" style="rounded=0;whiteSpace=wrap;html=1;" parent="1" vertex="1">
          <mxGeometry x="440" y="170" width="120" height="60" as="geometry" />
        </mxCell>
        <mxCell id="bEHOcinHx2GO_Jd9N_kA-8" value="Propositional logic" style="rounded=0;whiteSpace=wrap;html=1;" parent="1" vertex="1">
          <mxGeometry x="305" y="50" width="120" height="60" as="geometry" />
        </mxCell>
        <mxCell id="bEHOcinHx2GO_Jd9N_kA-9" value="Compute device (computer, brain, etc)" style="rounded=0;whiteSpace=wrap;html=1;" parent="1" vertex="1">
          <mxGeometry x="40" y="470" width="120" height="60" as="geometry" />
        </mxCell>
        <mxCell id="bEHOcinHx2GO_Jd9N_kA-16" style="edgeStyle=orthogonalEdgeStyle;rounded=0;orthogonalLoop=1;jettySize=auto;html=1;" parent="1" source="bEHOcinHx2GO_Jd9N_kA-13" target="bEHOcinHx2GO_Jd9N_kA-9" edge="1">
          <mxGeometry relative="1" as="geometry" />
        </mxCell>
        <mxCell id="bEHOcinHx2GO_Jd9N_kA-17" value="use" style="edgeLabel;html=1;align=center;verticalAlign=middle;resizable=0;points=[];" parent="bEHOcinHx2GO_Jd9N_kA-16" vertex="1" connectable="0">
          <mxGeometry x="-0.2" y="-2" relative="1" as="geometry">
            <mxPoint as="offset" />
          </mxGeometry>
        </mxCell>
        <mxCell id="PPRwT2o1y2Lo-lwHDNqp-12" style="edgeStyle=orthogonalEdgeStyle;rounded=0;orthogonalLoop=1;jettySize=auto;html=1;entryX=0.5;entryY=1;entryDx=0;entryDy=0;" edge="1" parent="1" source="bEHOcinHx2GO_Jd9N_kA-13" target="PPRwT2o1y2Lo-lwHDNqp-9">
          <mxGeometry relative="1" as="geometry" />
        </mxCell>
        <mxCell id="PPRwT2o1y2Lo-lwHDNqp-13" value="use to compute&amp;nbsp;" style="edgeLabel;html=1;align=center;verticalAlign=middle;resizable=0;points=[];" vertex="1" connectable="0" parent="PPRwT2o1y2Lo-lwHDNqp-12">
          <mxGeometry x="0.0114" y="3" relative="1" as="geometry">
            <mxPoint as="offset" />
          </mxGeometry>
        </mxCell>
        <mxCell id="PPRwT2o1y2Lo-lwHDNqp-14" style="edgeStyle=orthogonalEdgeStyle;rounded=0;orthogonalLoop=1;jettySize=auto;html=1;exitX=0.5;exitY=0;exitDx=0;exitDy=0;exitPerimeter=0;" edge="1" parent="1" source="bEHOcinHx2GO_Jd9N_kA-13" target="bEHOcinHx2GO_Jd9N_kA-3">
          <mxGeometry relative="1" as="geometry">
            <mxPoint x="330" y="440" as="sourcePoint" />
            <mxPoint x="470" y="170" as="targetPoint" />
          </mxGeometry>
        </mxCell>
        <mxCell id="PPRwT2o1y2Lo-lwHDNqp-15" value="verify, compute formally" style="edgeLabel;html=1;align=center;verticalAlign=middle;resizable=0;points=[];" vertex="1" connectable="0" parent="PPRwT2o1y2Lo-lwHDNqp-14">
          <mxGeometry x="0.038" y="-1" relative="1" as="geometry">
            <mxPoint as="offset" />
          </mxGeometry>
        </mxCell>
        <mxCell id="bEHOcinHx2GO_Jd9N_kA-13" value="Verifier" style="shape=umlActor;verticalLabelPosition=bottom;verticalAlign=top;html=1;outlineConnect=0;" parent="1" vertex="1">
          <mxGeometry x="330" y="470" width="30" height="60" as="geometry" />
        </mxCell>
        <mxCell id="PPRwT2o1y2Lo-lwHDNqp-6" value="Logic Operators (AND, OR, NOT, IFTHEN, EQUAL)" style="rounded=0;whiteSpace=wrap;html=1;" vertex="1" parent="1">
          <mxGeometry x="580" y="260" width="120" height="60" as="geometry" />
        </mxCell>
        <mxCell id="PPRwT2o1y2Lo-lwHDNqp-10" style="edgeStyle=orthogonalEdgeStyle;rounded=0;orthogonalLoop=1;jettySize=auto;html=1;entryX=0.5;entryY=1;entryDx=0;entryDy=0;" edge="1" parent="1" source="PPRwT2o1y2Lo-lwHDNqp-9" target="PPRwT2o1y2Lo-lwHDNqp-6">
          <mxGeometry relative="1" as="geometry" />
        </mxCell>
        <mxCell id="PPRwT2o1y2Lo-lwHDNqp-11" value="match" style="edgeLabel;html=1;align=center;verticalAlign=middle;resizable=0;points=[];" vertex="1" connectable="0" parent="PPRwT2o1y2Lo-lwHDNqp-10">
          <mxGeometry x="-0.16" y="-1" relative="1" as="geometry">
            <mxPoint as="offset" />
          </mxGeometry>
        </mxCell>
        <mxCell id="PPRwT2o1y2Lo-lwHDNqp-9" value="Truth tables for logic operators" style="rounded=0;whiteSpace=wrap;html=1;" vertex="1" parent="1">
          <mxGeometry x="580" y="370" width="120" height="60" as="geometry" />
        </mxCell>
        <mxCell id="PPRwT2o1y2Lo-lwHDNqp-19" style="edgeStyle=orthogonalEdgeStyle;rounded=0;orthogonalLoop=1;jettySize=auto;html=1;" edge="1" parent="1" source="PPRwT2o1y2Lo-lwHDNqp-16" target="PPRwT2o1y2Lo-lwHDNqp-18">
          <mxGeometry relative="1" as="geometry" />
        </mxCell>
        <mxCell id="PPRwT2o1y2Lo-lwHDNqp-16" value="Sentence 1" style="rounded=0;whiteSpace=wrap;html=1;" vertex="1" parent="1">
          <mxGeometry x="414" y="710" width="120" height="30" as="geometry" />
        </mxCell>
        <mxCell id="PPRwT2o1y2Lo-lwHDNqp-20" style="edgeStyle=orthogonalEdgeStyle;rounded=0;orthogonalLoop=1;jettySize=auto;html=1;" edge="1" parent="1" source="PPRwT2o1y2Lo-lwHDNqp-17" target="PPRwT2o1y2Lo-lwHDNqp-18">
          <mxGeometry relative="1" as="geometry" />
        </mxCell>
        <mxCell id="PPRwT2o1y2Lo-lwHDNqp-17" value="Sentence n" style="rounded=0;whiteSpace=wrap;html=1;" vertex="1" parent="1">
          <mxGeometry x="414" y="770" width="120" height="30" as="geometry" />
        </mxCell>
        <mxCell id="PPRwT2o1y2Lo-lwHDNqp-18" value="Conclusion" style="rounded=0;whiteSpace=wrap;html=1;" vertex="1" parent="1">
          <mxGeometry x="614" y="740" width="120" height="30" as="geometry" />
        </mxCell>
        <mxCell id="PPRwT2o1y2Lo-lwHDNqp-21" value="Argument" style="text;html=1;align=center;verticalAlign=middle;whiteSpace=wrap;rounded=0;" vertex="1" parent="1">
          <mxGeometry x="564" y="650" width="60" height="30" as="geometry" />
        </mxCell>
      </root>
    </mxGraphModel>
  </diagram>
</mxfile>
